<svg width="200" height="200" viewBox="0 0 64 64" xmlns="http://www.w3.org/2000/svg">
  <defs>
    <linearGradient id="paint0_linear" x1="0" y1="0" x2="0" y2="1">
      <stop offset="0%" stop-color="#fff" />
      <stop offset="100%" stop-color="#fff" />
    </linearGradient>
  </defs>
  <g fill="url(#paint0_linear)">
    <path d="M58 2H6C4.895 2 4 2.895 4 4v56c0 1.105 0.895 2 2 2h52c1.105 0 2-0.895 2-2V4C60 2.895 59.105 2 58 2zM54 58H10V6h44V58z"/>
    <path d="M16 14h32v4H16V14zM16 22h32v4H16V22zM16 30h32v4H16V30z"/>
  </g>
</svg>
