<svg width="200" height="200" viewBox="0 0 551.034 551.034" xmlns="http://www.w3.org/2000/svg">
  <defs>
    <linearGradient id="paint0_linear" x1="0" y1="0" x2="0" y2="1">
      <stop offset="0%" stop-color="#fff" />
      <stop offset="100%" stop-color="#fff" />
    </linearGradient>
  </defs>
  <g fill="url(#paint0_linear)">
    <path d="M387.624,0H163.41C73.206,0,0,73.206,0,163.41v224.214c0,90.204,73.206,163.41,163.41,163.41h224.214
      c90.204,0,163.41-73.206,163.41-163.41V163.41C551.034,73.206,477.828,0,387.624,0z M275.517,402.762
      c-70.359,0-127.245-56.886-127.245-127.245S205.158,148.272,275.517,148.272S402.762,205.158,402.762,275.517
      S345.876,402.762,275.517,402.762z M421.661,130.411c-16.436,0-29.78-13.344-29.78-29.78s13.344-29.78,29.78-29.78
      s29.78,13.344,29.78,29.78S438.097,130.411,421.661,130.411z" />
    <path d="M275.517,170.978c-57.624,0-104.54,46.916-104.54,104.54s46.916,104.54,104.54,104.54s104.54-46.916,104.54-104.54
      S333.141,170.978,275.517,170.978z" />
  </g>
</svg>

