<svg width="200" height="200" viewBox="0 0 64 64" xmlns="http://www.w3.org/2000/svg">
  <defs>
    <linearGradient id="paint0_linear" x1="0" y1="0" x2="0" y2="1">
      <stop offset="0%" stop-color="#fff" />
      <stop offset="100%" stop-color="#fff" />
    </linearGradient>
  </defs>
  <g fill="url(#paint0_linear)">
    <path d="M32 2C15.431 2 2 15.431 2 32s13.431 30 30 30 30-13.431 30-30S48.569 2 32 2zm0 56C17.536 58 6 46.464 6 32S17.536 6 32 6s26 11.536 26 26-11.536 26-26 26z"/>
    <path d="M45.5 20h-27C17.224 20 16 21.224 16 22.5v19C16 42.776 17.224 44 18.5 44h10.963l3.537 3.537c.391.391.903.585 1.414.585s1.023-.195 1.414-.585L35.537 44H45.5c1.276 0 2.5-1.224 2.5-2.5v-19C48 21.224 46.776 20 45.5 20zM46 41.5c0 .276-.224.5-.5.5h-11.963l-3.537 3.537-3.537-3.537H18.5c-.276 0-.5-.224-.5-.5v-19c0-.276.224-.5.5-.5h27c.276 0 .5.224.5.5v19z"/>
  </g>
</svg>
